<svg xmlns="http://www.w3.org/2000/svg" width="24" height="24" viewBox="0 0 24 24" fill="none" stroke="#00D2AA" stroke-width="2" stroke-linecap="round" stroke-linejoin="round">
  <path d="M9 19c-4.3 1.4-4.3-2.5-6-3m12 5v-3.5c0-1 .1-1.4-.5-2 2.8-.3 5.7-1.4 5.7-6.3 0-1.4-.5-2.7-1.3-3.7.1-.3.6-1.6-.1-3.2 0 0-1.1-.4-3.6 1.3a12.3 12.3 0 0 0-6.2 0C6.5 2.8 5.4 3.2 5.4 3.2c-.7 1.6-.2 2.9-.1 3.2-.8 1-.1.3 3.7-1.3 3.6 0 0 2.8-1.1 5.7-1.4 5.7.6-.6.5 1 .5 2v3.5"/>
  <circle cx="12" cy="12" r="10"/>
  <path d="M8 14s1.5 2 4 2 4-2 4-2"/>
  <line x1="9" y1="9" x2="9.01" y2="9"/>
  <line x1="15" y1="9" x2="15.01" y2="9"/>
</svg>