<svg xmlns="http://www.w3.org/2000/svg" width="24" height="24" viewBox="0 0 24 24" fill="none" stroke="#4285F4" stroke-width="2" stroke-linecap="round" stroke-linejoin="round">
  <path d="M22 12c0-.8-.1-1.6-.2-2.3H12v4.6h5.8c-.3 1.4-1 2.6-2.1 3.4v2.8h3.4c2-1.8 3.1-4.5 3.1-7.7z"/>
  <path d="M12 22c2.7 0 5-.9 6.6-2.4l-3.4-2.8c-.9.6-2.1.9-3.2.9-2.5 0-4.6-1.7-5.4-4H3.2v2.9C4.8 19.1 8.2 22 12 22z"/>
  <path d="M6.6 13.6c-.2-.6-.3-1.3-.3-2s.1-1.4.3-2V6.7H3.2C2.4 8.2 2 9.6 2 12s.4 3.8 1.2 5.3l3.4-2.7z"/>
  <path d="M12 4.8c1.4 0 2.7.5 3.7 1.4L18.6 3c-1.6-1.5-3.8-2.4-6.6-2.4C8.2.6 4.8 3.5 3.2 6.7l3.4 2.9C7.4 6.5 9.5 4.8 12 4.8z"/>
  <circle cx="12" cy="12" r="10"/>
</svg>